<?xml version="1.0" encoding="UTF-8"?>
<svg width="44px" height="42px" viewBox="0 0 44 42" version="1.1" xmlns="http://www.w3.org/2000/svg" xmlns:xlink="http://www.w3.org/1999/xlink">
    <!-- Generator: Sketch 61.2 (89653) - https://sketch.com -->
    <title>Icons/Services/Hotel/Deactive 2</title>
    <desc>Created with Sketch.</desc>
    <g id="blog" stroke="none" stroke-width="1" fill="none" fill-rule="evenodd">
        <g transform="translate(-883.000000, -263.000000)" id="Web/Components/Result-page/Sorting">
            <g transform="translate(376.000000, 248.000000)">
                <g id="Icons/Services/Hotel/Active" transform="translate(503.000000, 10.000000)">
                    <g id="Group" transform="translate(4.500000, 5.000000)">
                        <path d="M31.5,11 C32.0522847,11 32.5,11.4477153 32.5,12 L32.5,19 L39.5,19 C40.0522847,19 40.5,19.4477153 40.5,20 L40.5,40 L42.25,40 C42.6642136,40 43,40.3357864 43,40.75 C43,41.1642136 42.6642136,41.5 42.25,41.5 L25.5,41.5 C24.9477153,41.5 24.5,41.0522847 24.5,40.5 L24.5,36 L18.5,36 L18.5,40.5 C18.5,41.0522847 18.0522847,41.5 17.5,41.5 L0.75,41.5 C0.335786438,41.5 5.07265313e-17,41.1642136 0,40.75 C-5.07265313e-17,40.3357864 0.335786438,40 0.75,40 L2.5,40 L2.5,20 C2.5,19.4477153 2.94771525,19 3.5,19 L10.5,19 L10.5,12 C10.5,11.4477153 10.9477153,11 11.5,11 L31.5,11 Z M6.51053938,0 C6.78674571,0.00108160077 7.03906954,0.165484918 7.16055879,0.425069102 L7.16055879,0.425069102 L8.15116345,2.5320274 L10.3805431,2.87705805 C10.6536343,2.91924048 10.8799989,3.11933662 10.9651452,3.39406321 C11.0492532,3.66770821 10.9786441,3.96839322 10.7803154,4.16848936 L10.7803154,4.16848936 L9.16149714,5.80278813 L9.53531022,8.11741377 C9.58203685,8.40079317 9.46885456,8.68741738 9.24456671,8.8561471 C9.11892398,8.95132797 8.96836038,9 8.81883515,9 C8.70357611,9 8.58520197,8.97079678 8.47928826,8.91130874 L8.47928826,8.91130874 L6.48769524,7.81348396 L4.489872,8.89941113 C4.24481676,9.03136642 3.94680467,9.00865281 3.72563193,8.83884149 C3.50238245,8.66903016 3.39023853,8.38132436 3.43800353,8.09794496 L3.43800353,8.09794496 L3.82531542,5.78656411 L2.2168808,4.14253095 C2.02062894,3.9402716 1.9500198,3.63958659 2.03620448,3.36594159 C2.12238916,3.0922966 2.34979212,2.89328206 2.62392171,2.85218123 L2.62392171,2.85218123 L4.85433976,2.52229299 L5.85740486,0.420742699 C5.97993248,0.163321716 6.23225631,0 6.51053938,0 Z M16.5105394,0 C16.7867457,0.00108160077 17.0390695,0.165484918 17.1605588,0.425069102 L17.1605588,0.425069102 L18.1511635,2.5320274 L20.3805431,2.87705805 C20.6536343,2.91924048 20.8799989,3.11933662 20.9651452,3.39406321 C21.0492532,3.66770821 20.9786441,3.96839322 20.7803154,4.16848936 L20.7803154,4.16848936 L19.1614971,5.80278813 L19.5353102,8.11741377 C19.5820369,8.40079317 19.4688546,8.68741738 19.2445667,8.8561471 C19.118924,8.95132797 18.9683604,9 18.8188351,9 C18.7035761,9 18.585202,8.97079678 18.4792883,8.91130874 L18.4792883,8.91130874 L16.4876952,7.81348396 L14.489872,8.89941113 C14.2448168,9.03136642 13.9468047,9.00865281 13.7256319,8.83884149 C13.5023825,8.66903016 13.3902385,8.38132436 13.4380035,8.09794496 L13.4380035,8.09794496 L13.8253154,5.78656411 L12.2168808,4.14253095 C12.0206289,3.9402716 11.9500198,3.63958659 12.0362045,3.36594159 C12.1223892,3.0922966 12.3497921,2.89328206 12.6239217,2.85218123 L12.6239217,2.85218123 L14.8543398,2.52229299 L15.8574049,0.420742699 C15.9799325,0.163321716 16.2322563,0 16.5074243,0 L16.5074243,0 Z M26.5105394,0 C26.7867457,0.00108160077 27.0390695,0.165484918 27.1605588,0.425069102 L27.1605588,0.425069102 L28.1511635,2.5320274 L30.3805431,2.87705805 C30.6536343,2.91924048 30.8799989,3.11933662 30.9651452,3.39406321 C31.0492532,3.66770821 30.9786441,3.96839322 30.7803154,4.16848936 L30.7803154,4.16848936 L29.1614971,5.80278813 L29.5353102,8.11741377 C29.5820369,8.40079317 29.4688546,8.68741738 29.2445667,8.8561471 C29.118924,8.95132797 28.9683604,9 28.8188351,9 C28.7035761,9 28.585202,8.97079678 28.4792883,8.91130874 L28.4792883,8.91130874 L26.4876952,7.81348396 L24.489872,8.89941113 C24.2448168,9.03136642 23.9468047,9.00865281 23.7256319,8.83884149 C23.5023825,8.66903016 23.3902385,8.38132436 23.4380035,8.09794496 L23.4380035,8.09794496 L23.8253154,5.78656411 L22.2168808,4.14253095 C22.0206289,3.9402716 21.9500198,3.63958659 22.0362045,3.36594159 C22.1223892,3.0922966 22.3497921,2.89328206 22.6239217,2.85218123 L22.6239217,2.85218123 L24.8543398,2.52229299 L25.8574049,0.420742699 C25.9799325,0.163321716 26.2322563,0 26.5074243,0 L26.5074243,0 Z M36.5105394,0 C36.7867457,0.00108160077 37.0390695,0.165484918 37.1605588,0.425069102 L37.1605588,0.425069102 L38.1511635,2.5320274 L40.3805431,2.87705805 C40.6536343,2.91924048 40.8799989,3.11933662 40.9651452,3.39406321 C41.0492532,3.66770821 40.9786441,3.96839322 40.7803154,4.16848936 L40.7803154,4.16848936 L39.1614971,5.80278813 L39.5353102,8.11741377 C39.5820369,8.40079317 39.4688546,8.68741738 39.2445667,8.8561471 C39.118924,8.95132797 38.9683604,9 38.8188351,9 C38.7035761,9 38.585202,8.97079678 38.4792883,8.91130874 L38.4792883,8.91130874 L36.4876952,7.81348396 L34.489872,8.89941113 C34.2448168,9.03136642 33.9468047,9.00865281 33.7256319,8.83884149 C33.5023825,8.66903016 33.3902385,8.38132436 33.4380035,8.09794496 L33.4380035,8.09794496 L33.8253154,5.78656411 L32.2168808,4.14253095 C32.0206289,3.9402716 31.9500198,3.63958659 32.0362045,3.36594159 C32.1223892,3.0922966 32.3497921,2.89328206 32.6239217,2.85218123 L32.6239217,2.85218123 L34.8543398,2.52229299 L35.8574049,0.420742699 C35.9799325,0.163321716 36.2322563,0 36.5074243,0 L36.5074243,0 Z" id="Combined-Shape" fill="#404040"></path>
                        <path d="M31,12.5 L31,40 L26,40 L26,36 C26,35.1715729 25.3284271,34.5 24.5,34.5 L24.5,34.5 L18.5,34.5 C17.6715729,34.5 17,35.1715729 17,36 L17,36 L17,40 L12,40 L12,12.5 L31,12.5 Z M10.5,20.5 L10.5,40 L4,40 L4,20.5 L10.5,20.5 Z M39,20.5 L39,40 L32.5,40 L32.5,20.5 L39,20.5 Z" id="Combined-Shape" fill="#FF4232"></path>
                        <path d="M21.5,28 C21.9142136,28 22.25,28.3357864 22.25,28.75 L22.25,30.25 C22.25,30.6642136 21.9142136,31 21.5,31 C21.0857864,31 20.75,30.6642136 20.75,30.25 L20.75,28.75 C20.75,28.3357864 21.0857864,28 21.5,28 Z M26.75,28 C27.1642136,28 27.5,28.3357864 27.5,28.75 L27.5,30.25 C27.5,30.6642136 27.1642136,31 26.75,31 C26.3357864,31 26,30.6642136 26,30.25 L26,28.75 C26,28.3357864 26.3357864,28 26.75,28 Z M35.75,28 C36.1642136,28 36.5,28.3357864 36.5,28.75 L36.5,30.25 C36.5,30.6642136 36.1642136,31 35.75,31 C35.3357864,31 35,30.6642136 35,30.25 L35,28.75 C35,28.3357864 35.3357864,28 35.75,28 Z M7.25,28 C7.66421356,28 8,28.3357864 8,28.75 L8,30.25 C8,30.6642136 7.66421356,31 7.25,31 C6.83578644,31 6.5,30.6642136 6.5,30.25 L6.5,28.75 C6.5,28.3357864 6.83578644,28 7.25,28 Z M16.25,28 C16.6642136,28 17,28.3357864 17,28.75 L17,30.25 C17,30.6642136 16.6642136,31 16.25,31 C15.8357864,31 15.5,30.6642136 15.5,30.25 L15.5,28.75 C15.5,28.3357864 15.8357864,28 16.25,28 Z M21.5,22 C21.9142136,22 22.25,22.3357864 22.25,22.75 L22.25,24.25 C22.25,24.6642136 21.9142136,25 21.5,25 C21.0857864,25 20.75,24.6642136 20.75,24.25 L20.75,22.75 C20.75,22.3357864 21.0857864,22 21.5,22 Z M26.75,22 C27.1642136,22 27.5,22.3357864 27.5,22.75 L27.5,24.25 C27.5,24.6642136 27.1642136,25 26.75,25 C26.3357864,25 26,24.6642136 26,24.25 L26,22.75 C26,22.3357864 26.3357864,22 26.75,22 Z M35.75,22 C36.1642136,22 36.5,22.3357864 36.5,22.75 L36.5,24.25 C36.5,24.6642136 36.1642136,25 35.75,25 C35.3357864,25 35,24.6642136 35,24.25 L35,22.75 C35,22.3357864 35.3357864,22 35.75,22 Z M7.25,22 C7.66421356,22 8,22.3357864 8,22.75 L8,24.25 C8,24.6642136 7.66421356,25 7.25,25 C6.83578644,25 6.5,24.6642136 6.5,24.25 L6.5,22.75 C6.5,22.3357864 6.83578644,22 7.25,22 Z M16.25,22 C16.6642136,22 17,22.3357864 17,22.75 L17,24.25 C17,24.6642136 16.6642136,25 16.25,25 C15.8357864,25 15.5,24.6642136 15.5,24.25 L15.5,22.75 C15.5,22.3357864 15.8357864,22 16.25,22 Z M21.5,16 C21.9142136,16 22.25,16.3357864 22.25,16.75 L22.25,18.25 C22.25,18.6642136 21.9142136,19 21.5,19 C21.0857864,19 20.75,18.6642136 20.75,18.25 L20.75,16.75 C20.75,16.3357864 21.0857864,16 21.5,16 Z M26.75,16 C27.1642136,16 27.5,16.3357864 27.5,16.75 L27.5,18.25 C27.5,18.6642136 27.1642136,19 26.75,19 C26.3357864,19 26,18.6642136 26,18.25 L26,16.75 C26,16.3357864 26.3357864,16 26.75,16 Z M16.25,16 C16.6642136,16 17,16.3357864 17,16.75 L17,18.25 C17,18.6642136 16.6642136,19 16.25,19 C15.8357864,19 15.5,18.6642136 15.5,18.25 L15.5,16.75 C15.5,16.3357864 15.8357864,16 16.25,16 Z M6.50327079,2.46821296 L7.01414866,3.55522173 C7.12006237,3.77911309 7.32254446,3.9348636 7.56033111,3.97163802 L8.7108447,4.14902055 L7.87599549,4.99266915 C7.70362612,5.16572527 7.62471003,5.41665665 7.66520645,5.66218003 L7.85730483,6.85626728 L6.83035723,6.28950847 C6.72340516,6.23110203 6.60710776,6.20081721 6.49081035,6.20081721 C6.37451295,6.20081721 6.26029229,6.23002043 6.15334021,6.28734527 L5.1232775,6.84761447 L5.32368285,5.65460882 C5.36417926,5.40908545 5.28630154,5.15923567 5.11600891,4.98401634 L4.28635155,4.13604134 L5.43790351,3.96514842 C5.67465179,3.92945559 5.87921062,3.77586829 5.98512433,3.55305853 L6.50327079,2.46821296 Z M16.5032708,2.46821296 L17.0141487,3.55522173 C17.1200624,3.77911309 17.3225445,3.9348636 17.5603311,3.97163802 L18.7108447,4.14902055 L17.8759955,4.99266915 C17.7036261,5.16572527 17.62471,5.41665665 17.6652064,5.66218003 L17.8573048,6.85626728 L16.8303572,6.28950847 C16.7234052,6.23110203 16.6071078,6.20081721 16.4908104,6.20081721 C16.374513,6.20081721 16.2602923,6.23002043 16.1533402,6.28734527 L15.1232775,6.84761447 L15.3236828,5.65460882 C15.3641793,5.40908545 15.2863015,5.15923567 15.1160089,4.98401634 L14.2863515,4.13604134 L15.4379035,3.96514842 C15.6746518,3.92945559 15.8792106,3.77586829 15.9851243,3.55305853 L16.5032708,2.46821296 Z M26.5032708,2.46821296 L27.0141487,3.55522173 C27.1200624,3.77911309 27.3225445,3.9348636 27.5603311,3.97163802 L28.7108447,4.14902055 L27.8759955,4.99266915 C27.7036261,5.16572527 27.62471,5.41665665 27.6652064,5.66218003 L27.8573048,6.85626728 L26.8303572,6.28950847 C26.7234052,6.23110203 26.6071078,6.20081721 26.4908104,6.20081721 C26.374513,6.20081721 26.2602923,6.23002043 26.1533402,6.28734527 L25.1232775,6.84761447 L25.3236828,5.65460882 C25.3641793,5.40908545 25.2863015,5.15923567 25.1160089,4.98401634 L24.2863515,4.13604134 L25.4379035,3.96514842 C25.6746518,3.92945559 25.8792106,3.77586829 25.9851243,3.55305853 L26.5032708,2.46821296 Z M36.5032708,2.46821296 L37.0141487,3.55522173 C37.1200624,3.77911309 37.3225445,3.9348636 37.5603311,3.97163802 L38.7108447,4.14902055 L37.8759955,4.99266915 C37.7036261,5.16572527 37.62471,5.41665665 37.6652064,5.66218003 L37.8573048,6.85626728 L36.8303572,6.28950847 C36.7234052,6.23110203 36.6071078,6.20081721 36.4908104,6.20081721 C36.374513,6.20081721 36.2602923,6.23002043 36.1533402,6.28734527 L35.1232775,6.84761447 L35.3236828,5.65460882 C35.3641793,5.40908545 35.2863015,5.15923567 35.1160089,4.98401634 L34.2863515,4.13604134 L35.4379035,3.96514842 C35.6746518,3.92945559 35.8792106,3.77586829 35.9851243,3.55305853 L36.5032708,2.46821296 Z" id="Combined-Shape" fill="#404040"></path>
                    </g>
                </g>
            </g>
        </g>
    </g>
</svg>