<?xml version="1.0" encoding="UTF-8"?>
<svg width="40px" height="42px" viewBox="0 0 40 42" version="1.1" xmlns="http://www.w3.org/2000/svg" xmlns:xlink="http://www.w3.org/1999/xlink">
    <!-- Generator: Sketch 61.2 (89653) - https://sketch.com -->
    <title>Icons/Services/Flight/Deactive</title>
    <desc>Created with Sketch.</desc>
    <g id="blog" stroke="none" stroke-width="1" fill="none" fill-rule="evenodd">
        <g transform="translate(-700.000000, -263.000000)" id="Web/Components/Result-page/Sorting">
            <g transform="translate(376.000000, 248.000000)">
                <g id="Icons/Services/Flight/Active" transform="translate(318.000000, 10.000000)">
                    <path d="M43.9855706,29.9342816 L43.9855706,33.2312309 L43.8852732,33.2009929 L30.6142927,29.0916495 L30.5610737,29.0745146 L30.5610737,29.0190783 L30.5610737,19.1403255 L30.5610737,18.9800641 L30.6859337,19.0818654 L43.9579376,29.8758215 L43.9855706,29.8990039 L43.9855706,29.9342816 Z M33.6140031,19.6704983 C33.6385657,19.2330553 34.0059816,18.8893501 34.4511791,18.8893501 C34.9137752,18.8893501 35.2904021,19.2612775 35.2904021,19.7168632 L35.2904021,21.0735413 L35.1655421,20.97174 L33.641636,19.7329902 L33.6119562,19.7087998 L33.6140031,19.6704983 Z M39.7014398,24.6254977 C39.7086039,24.1769674 40.0842073,23.8110877 40.5406627,23.8110877 C41.0032588,23.8110877 41.3798857,24.1820071 41.3798857,24.6375929 L41.3798857,26.0275327 L41.2550257,25.9247235 L39.7300962,24.6849657 L39.7014398,24.6617833 L39.7014398,24.6254977 Z M35.1890812,43.4345382 L35.211597,43.4567128 L35.211597,45.0311043 L35.1010652,44.9766759 L29.5447952,42.2643278 L29.4792949,42.2330819 L29.5079513,42.1675663 C29.9562191,41.1213316 30.2663222,40.0226845 30.4280262,38.9018628 L30.4495185,38.7526887 L30.5580034,38.8595297 L35.1890812,43.4345382 Z M29.1886372,29.5643701 L29.1886372,37.0724642 C29.1886372,39.6316064 28.3156406,42.1665583 26.7323749,44.2126626 L26.5952336,44.3900589 L26.5952336,44.1662977 L26.5952336,36.8809569 C26.5952336,36.5080216 26.2871773,36.2046337 25.9085036,36.2046337 C25.5298298,36.2046337 25.2217736,36.5080216 25.2217736,36.8809569 L25.2217736,44.3900589 L25.0846322,44.2126626 C23.5003431,42.1665583 22.62837,39.6316064 22.62837,37.0724642 L22.62837,29.5734415 L22.62837,13.2852418 C22.62837,10.6767108 23.8063524,8.23448879 25.8604018,6.58349429 L25.9085036,6.54519283 L25.9566054,6.58349429 C28.0106547,8.23348086 29.1886372,10.6767108 29.1886372,13.2852418 L29.1886372,29.5643701 Z M22.2722119,42.2643278 L16.7149185,44.9766759 L16.6054101,45.0311043 L16.6054101,44.9091444 L16.6054101,43.4869507 L16.6054101,43.4567128 L16.6279259,43.4345382 L21.2590037,38.8595297 L21.3664652,38.7526887 L21.3889809,38.9018628 C21.5506849,40.0226845 21.860788,41.1213316 22.3080324,42.1675663 L22.3366888,42.2330819 L22.2722119,42.2643278 Z M18.1743477,19.7329902 L16.651465,20.97174 L16.526605,21.0735413 L16.526605,20.9142878 L16.526605,19.7168632 C16.526605,19.2612775 16.9032319,18.8893501 17.365828,18.8893501 C17.8110255,18.8893501 18.1784414,19.2330553 18.2030041,19.6704983 L18.2050509,19.7087998 L18.1743477,19.7329902 Z M12.086911,24.6849657 L10.5619814,25.9247235 L10.4371214,26.0275327 L10.4371214,25.8662634 L10.4371214,24.6375929 C10.4371214,24.1820071 10.8127249,23.8110877 11.275321,23.8110877 C11.7317764,23.8110877 12.1084032,24.1769674 12.1145439,24.6254977 L12.1145439,24.6617833 L12.086911,24.6849657 Z M42.7799552,27.1654892 L42.7523222,27.1423068 L42.7523222,27.1070291 L42.7523222,24.6375929 C42.7523222,23.4361366 41.7606063,22.4594494 40.5406627,22.4594494 C39.715768,22.4594494 38.9645611,22.9079796 38.5807701,23.6316756 L38.5367621,23.7143261 L38.4630742,23.6548581 L36.6904716,22.2125057 L36.6628386,22.1903312 L36.6628386,22.1540456 L36.6628386,19.7168632 C36.6628386,18.5154069 35.6700993,17.5387197 34.4511791,17.5387197 C33.6365188,17.5387197 32.8883822,17.9791865 32.5015209,18.6887714 L32.4575129,18.7694061 L32.3858719,18.710946 L30.5887067,17.2504508 L30.5610737,17.2272684 L30.5610737,17.1919907 L30.5610737,13.2852418 C30.5610737,10.0618716 28.9706439,7.01992934 26.3076462,5.14718955 C26.1899503,5.06453903 26.052809,5.0211979 25.9085036,5.0211979 C25.7641981,5.0211979 25.6270568,5.06453903 25.5093609,5.14718955 C22.8463632,7.01992934 21.2559334,10.0618716 21.2559334,13.2852418 L21.2559334,17.2272684 L21.2283004,17.2504508 L19.4311352,18.710946 L19.3594942,18.7694061 L19.3154862,18.6887714 C18.9286249,17.9791865 18.1804883,17.5387197 17.365828,17.5387197 C16.1469078,17.5387197 15.1541685,18.5154069 15.1541685,19.7168632 L15.1541685,22.1903312 L15.1265355,22.2125057 L13.3529095,23.6548581 L13.2802451,23.7143261 L13.236237,23.6316756 C12.852446,22.9089875 12.1012392,22.4594494 11.275321,22.4594494 C10.0564008,22.4594494 9.06468489,23.4371445 9.06468489,24.6375929 L9.06468489,27.1433147 L9.03705194,27.1654892 L6.70769654,29.0593956 C6.55008637,29.1884111 6.45899998,29.3779025 6.45899998,29.5804971 L6.45899998,34.1534898 C6.45899998,34.3671716 6.56441457,34.5707741 6.73839981,34.6977737 C6.8581426,34.783448 6.9973308,34.828805 7.14572998,34.828805 C7.21532408,34.828805 7.28491817,34.8187256 7.3504185,34.7975591 L18.6164749,31.2970072 C18.7914836,31.2425788 18.9337421,31.1246507 19.0186878,30.9643893 C19.1036336,30.8041279 19.1200086,30.621692 19.0647427,30.4493354 C18.9757032,30.1661062 18.7126785,29.9756069 18.4117864,29.9756069 C18.3411688,29.9756069 18.2715747,29.9866941 18.2050509,30.0068528 L7.93071047,33.2009929 L7.83143653,33.2312309 L7.83143653,33.1294297 L7.83143653,29.9342816 L7.83143653,29.8990039 L7.85906949,29.8758215 L21.1310734,19.0818654 L21.2559334,18.9800641 L21.2559334,29.0745146 L21.2016909,29.0916495 L16.9267711,30.4160736 C16.7517624,30.4694941 16.6084805,30.5874223 16.5235347,30.7476837 C16.438589,30.907945 16.4222139,31.0903809 16.4774798,31.2627375 C16.5675428,31.5459667 16.8305675,31.7364661 17.1324831,31.7364661 C17.2010537,31.7364661 17.2706478,31.7253788 17.338195,31.7052201 L21.1566595,30.5219066 L21.2559334,30.4916686 L21.2559334,36.9474805 L21.2344411,36.969655 L15.4335683,42.699755 C15.3046146,42.8277625 15.2329736,42.9960873 15.2329736,43.1765073 L15.2329736,46.1206801 C15.2329736,46.3555285 15.3537398,46.5702183 15.5574049,46.694194 C15.6658898,46.7607176 15.7907498,46.7959953 15.9186801,46.7959953 C16.0240947,46.7959953 16.1295093,46.7718049 16.223666,46.72544 L22.8760431,43.4788873 L22.9415434,43.4466334 L22.9763404,43.5091253 C23.6374844,44.6662325 24.4654495,45.7094433 25.43772,46.6115435 C25.5656503,46.7304796 25.7324714,46.7959953 25.9085036,46.7959953 C26.0845357,46.7959953 26.2513568,46.7304796 26.3792872,46.6115435 C27.3505342,45.7094433 28.1795227,44.6662325 28.8396432,43.5091253 L28.8754637,43.4466334 L28.940964,43.4788873 L35.5933411,46.72544 C35.6874978,46.7718049 35.7929124,46.7959953 35.898327,46.7959953 C36.0262573,46.7959953 36.1511173,46.7607176 36.2596022,46.694194 C36.4622439,46.5702183 36.5840335,46.3555285 36.5840335,46.1206801 L36.5840335,43.1765073 C36.5840335,42.9960873 36.5123926,42.8277625 36.3834388,42.699755 L30.582566,36.969655 L30.5610737,36.9474805 L30.5610737,36.9162345 L30.5610737,30.5944778 L30.5610737,30.4916686 L30.6593242,30.5219066 L44.4655652,34.7975591 C44.5320889,34.8187256 44.601683,34.828805 44.6712771,34.828805 C44.8176294,34.828805 44.9588645,34.783448 45.0775839,34.6977737 C45.2525925,34.5707741 45.3580071,34.3671716 45.3580071,34.1534898 L45.3580071,29.5804971 C45.3580071,29.3779025 45.2669207,29.1884111 45.1093106,29.0593956 L42.7799552,27.1654892 Z" id="Shape" fill="#3F3F3F" fill-rule="nonzero"></path>
                    <path d="M25.9176107,6.54478479 L25.9657125,6.58409418 C28.0197618,8.23408075 29.1977443,10.6773107 29.1977443,13.2848338 L29.1977443,13.2848338 L29.1977443,37.0720561 C29.1977443,39.6311984 28.3257712,42.1671582 26.741482,44.2122546 L26.741482,44.2122546 L26.6043407,44.3896508 L26.6043407,36.8805488 C26.6043407,36.5076136 26.2962844,36.2052336 25.9176107,36.2052336 C25.5389369,36.2052336 25.2308807,36.5076136 25.2308807,36.8805488 L25.2308807,36.8805488 L25.2308807,44.3896508 L25.0937394,44.2122546 C23.5104736,42.1671582 22.6374771,39.6311984 22.6374771,37.0720561 L22.6374771,37.0720561 L22.6374771,13.2848338 C22.6374771,10.6773107 23.8154595,8.23408075 25.8695089,6.58409418 L25.8695089,6.58409418 L25.9176107,6.54478479 Z M40.5490575,23.810574 C41.0116536,23.810574 41.3882805,24.1825014 41.3882805,24.6380871 L41.3882805,24.6380871 L41.3882805,26.027019 L41.2634205,25.9252178 L39.738491,24.68546 L39.7098346,24.6622775 L39.7098346,24.624984 C39.7169987,24.1764538 40.0926021,23.810574 40.5490575,23.810574 Z M11.2795404,23.8108216 C11.7359958,23.8108216 12.1115992,24.1767014 12.1187633,24.6252316 L12.1187633,24.6252316 L12.1187633,24.6615172 L12.0911304,24.6846997 L10.5662009,25.9254654 L10.4413409,26.0272666 L10.4413409,24.6373268 C10.4413409,24.181741 10.8169443,23.8108216 11.2795404,23.8108216 Z M17.3675017,18.8898091 C17.8126993,18.8898091 18.1801152,19.2325064 18.2036544,19.6709573 L18.2036544,19.6709573 L18.2057012,19.7082508 L18.1760214,19.7324412 L16.6531388,20.972199 L16.5282788,21.0740002 L16.5282788,19.7163143 C16.5282788,19.2607285 16.9049057,18.8898091 17.3675017,18.8898091 Z M34.4476866,18.8897845 C34.9102826,18.8897845 35.2869095,19.2607039 35.2869095,19.7162897 L35.2869095,19.7162897 L35.2869095,21.0739757 L35.1620495,20.9721744 L33.6381435,19.7334246 L33.6084636,19.7092342 L33.6105105,19.6709327 C33.6350731,19.2324818 34.002489,18.8897845 34.4476866,18.8897845 Z" id="Combined-Shape" fill="#FFFFFF" fill-rule="nonzero"></path>
                    <path d="M30.4568644,38.7519677 L30.5653493,38.8598165 L35.1964272,43.4338172 L35.2179195,43.4559917 L35.2179195,45.0313912 L35.1084111,44.9769628 L29.5511177,42.2646147 L29.4866408,42.2333688 L29.5152972,42.1678531 C29.963565,41.1216185 30.2726447,40.0229714 30.4353721,38.9021497 L30.4353721,38.9021497 L30.4568644,38.7519677 Z M21.3688914,38.7526192 L21.3903837,38.9017933 C21.5520876,40.022615 21.8621907,41.1212621 22.3094351,42.1674967 L22.3094351,42.1674967 L22.3380915,42.2330124 L22.2736147,42.2642583 L16.7173447,44.9766064 L16.6068129,45.0310348 L16.6068129,43.4566432 L16.6293286,43.4344687 L21.2604065,38.8594601 L21.3688914,38.7526192 Z M21.2562876,18.9805075 L21.2562876,29.074958 L21.2020451,29.0910849 L18.2852337,29.9952009 C18.2576007,30.0002406 18.2309912,29.9992327 18.2054052,30.0072961 L18.2054052,30.0072961 L7.93106468,33.2014363 L7.83179074,33.2316743 L7.83179074,29.8984393 L7.85942369,29.8762648 L21.1314276,19.0823087 L21.2562876,18.9805075 Z M30.5664804,18.9802703 L30.6923638,19.0820715 L43.9633443,29.8760276 L43.9920007,29.8992101 L43.9920007,33.2314371 L43.8917033,33.2011991 L30.6196994,29.0908477 L30.5664804,29.0747208 L30.5664804,18.9802703 Z" id="Combined-Shape" fill="#FF4232" fill-rule="evenodd"></path>
                </g>
            </g>
        </g>
    </g>
</svg>