<?xml version="1.0" encoding="UTF-8"?>
<svg width="50px" height="29px" viewBox="0 0 50 29" version="1.1" xmlns="http://www.w3.org/2000/svg" xmlns:xlink="http://www.w3.org/1999/xlink">
    <!-- Generator: Sketch 61.2 (89653) - https://sketch.com -->
    <title>Icons/Services/Bus/Deactive</title>
    <desc>Created with Sketch.</desc>
    <g id="blog" stroke="none" stroke-width="1" fill="none" fill-rule="evenodd">
        <g transform="translate(-510.000000, -270.000000)" id="Web/Components/Result-page/Sorting">
            <g transform="translate(376.000000, 248.000000)">
                <g id="Icons/Services/Bus/Active" transform="translate(133.000000, 10.000000)">
                    <path d="M10.1356149,32.7239075 C11.8380187,32.7239075 13.2188909,34.103768 13.2188909,35.8061671 C13.2188909,37.5095741 11.8380187,38.8894346 10.1356149,38.8894346 C8.43421912,38.8894346 7.05233898,37.5095741 7.05233898,35.8061671 C7.05233898,34.103768 8.43421912,32.7239075 10.1356149,32.7239075 Z M35.2410395,32.7239075 C36.9434433,32.7239075 38.3243155,34.103768 38.3243155,35.8061671 C38.3243155,37.5095741 36.9434433,38.8894346 35.2410395,38.8894346 C33.5386358,38.8894346 32.1577636,37.5095741 32.1577636,35.8061671 C32.1577636,34.103768 33.5386358,32.7239075 35.2410395,32.7239075 Z M22.2632821,18.166831 L22.2632821,35.4579242 L15.9596508,35.4579242 L15.9596508,27.4871888 L16.8436106,27.4871888 C17.2185628,27.4871888 17.5229594,27.182793 17.5229594,26.8088498 C17.5229594,26.4349066 17.2185628,26.1295028 16.8436106,26.1295028 L15.9596508,26.1295028 L15.9596508,18.166831 L22.2632821,18.166831 Z M10.7727961,18.1579939 L10.7727961,25.4110808 L2.93811025,25.4110808 L2.93811025,18.1579939 L10.7727961,18.1579939 Z M31.4547828,17.6225342 L31.4547828,21.6270526 L27.4492455,21.6270526 L27.4492455,17.6225342 L31.4547828,17.6225342 Z M40.6464585,17.6225342 L40.6464585,21.6270526 L36.6409212,21.6270526 L36.6409212,17.6225342 L40.6464585,17.6225342 Z M48.6851859,17.6223798 L48.6851859,21.6268982 L45.8286955,21.6268982 L45.8286955,17.6223798 L48.6851859,17.6223798 Z" id="Combined-Shape" fill="#FFFFFF" fill-rule="evenodd"></path>
                    <path d="M45.0869829,12.4349494 C47.8245369,12.4349494 50.0510673,14.6614738 50.0510673,17.3990202 L50.0510673,17.3990202 L50.0510673,36.1364975 C50.0510673,36.5104407 49.7466707,36.8148365 49.3727264,36.8148365 L49.3727264,36.8148365 L45.73745,36.8150302 C45.2813265,38.7340712 43.5535071,40.1654779 41.4958729,40.1654779 C39.4394547,40.1654779 37.7112626,38.7345632 37.2545852,36.8160197 L22.8478684,36.8156101 C22.4729162,36.8156101 22.1695275,36.5102064 22.1695275,36.1362632 C22.1695275,35.76232 22.4729162,35.4579242 22.8478684,35.4579242 L22.8478684,35.4579242 L28.0105161,35.4579242 L28.0105161,26.8159053 L2.94542058,26.8155479 L2.94630196,35.4577569 L9.47671875,35.4577569 C9.85066298,35.4577569 10.1550596,35.7621527 10.1550596,36.1360959 C10.1550596,36.5100391 9.85066298,36.8154429 9.47671875,36.8154429 L9.47671875,36.8154429 L2.26695315,36.8154429 C1.89300893,36.8154429 1.58861228,36.5100391 1.58861228,36.1360959 L1.58861228,36.1360959 L1.58856963,26.2420029 C1.58320512,26.2076366 1.58042058,26.1724202 1.58042058,26.1365584 C1.58042058,26.1007743 1.58320803,26.0656272 1.58857802,26.0313227 L1.58861228,16.9440408 C1.58861228,16.8664299 1.60272338,16.7888191 1.62993765,16.7112082 L1.62993765,16.7112082 L1.64001701,16.6860099 L1.64404876,16.6577878 C2.00589775,14.2498355 4.11651556,12.4345479 6.55269666,12.4345479 L6.55269666,12.4345479 Z M16.3904483,31.4468562 C18.7943755,31.4468562 20.7497712,33.4022465 20.7497712,35.8061671 C20.7497712,38.2100876 18.7943755,40.1654779 16.3904483,40.1654779 C13.9865212,40.1654779 12.0311255,38.2100876 12.0311255,35.8061671 C12.0311255,33.4022465 13.9865212,31.4468562 16.3904483,31.4468562 Z M41.4958729,32.7239075 C39.7944771,32.7239075 38.412597,34.103768 38.412597,35.8061671 C38.412597,37.5095741 39.7944771,38.8894346 41.4958729,38.8894346 C43.1982767,38.8894346 44.5791489,37.5095741 44.5791489,35.8061671 C44.5791489,34.103768 43.1982767,32.7239075 41.4958729,32.7239075 Z M16.3904483,32.7239075 C14.6880446,32.7239075 13.3071724,34.103768 13.3071724,35.8061671 C13.3071724,37.5095741 14.6880446,38.8894346 16.3904483,38.8894346 C18.0928521,38.8894346 19.4737243,37.5095741 19.4737243,35.8061671 C19.4737243,34.103768 18.0928521,32.7239075 16.3904483,32.7239075 Z M41.4958729,33.5876296 C42.7195071,33.5876296 43.7143399,34.5824597 43.7143399,35.8060905 C43.7143399,37.0297213 42.7195071,38.0245514 41.4958729,38.0245514 C40.2722387,38.0245514 39.277406,37.0297213 39.277406,35.8060905 C39.277406,34.5824597 40.2722387,33.5876296 41.4958729,33.5876296 Z M16.3904483,33.5876296 C17.6140825,33.5876296 18.6089153,34.5824597 18.6089153,35.8060905 C18.6089153,37.0297213 17.6140825,38.0245514 16.3904483,38.0245514 C15.1668141,38.0245514 14.1719814,37.0297213 14.1719814,35.8060905 C14.1719814,34.5824597 15.1668141,33.5876296 16.3904483,33.5876296 Z M41.4958729,34.8646809 C40.975778,34.8646809 40.5534529,35.285997 40.5534529,35.8060905 C40.5534529,36.326184 40.975778,36.748508 41.4958729,36.748508 C42.0169758,36.748508 42.438293,36.326184 42.438293,35.8060905 C42.438293,35.285997 42.0169758,34.8646809 41.4958729,34.8646809 Z M16.3904483,34.8646809 C15.8703534,34.8646809 15.4480282,35.285997 15.4480282,35.8060905 C15.4480282,36.326184 15.8703534,36.748508 16.3904483,36.748508 C16.9115512,36.748508 17.3328684,36.326184 17.3328684,35.8060905 C17.3328684,35.285997 16.9115512,34.8646809 16.3904483,34.8646809 Z M30.9595925,13.7925078 L6.55269666,13.7922338 C5.16275304,13.7922338 3.88267442,14.6066438 3.28900017,15.8675682 L3.28900017,15.8675682 L3.10051615,16.2646938 L6.48113321,16.2646938 C6.85507744,16.2646938 7.16048202,16.5690897 7.16048202,16.9440408 L7.16048202,16.9440408 L7.16048202,22.3062452 C7.16048202,22.6801884 6.85507744,22.9855921 6.48113321,22.9855921 L6.48113321,22.9855921 L2.94630196,22.9855921 L2.94542058,25.4575479 L28.0105161,25.4582194 L28.0105161,17.487484 C28.0105161,17.1135408 28.3149128,16.809145 28.688857,16.809145 L28.688857,16.809145 L36.3501779,16.809145 C36.7251301,16.809145 37.0295267,17.1135408 37.0295267,17.487484 L37.0295267,17.487484 L37.0295267,35.4579242 L37.1503359,35.4577262 C37.3284013,33.2161168 39.2092188,31.4468562 41.4958729,31.4468562 C43.7834858,31.4468562 45.6634381,33.2161168 45.8414168,35.4577262 L48.6933776,35.4581585 L48.6933776,26.7687668 L40.1793429,26.7687668 C39.8053987,26.7687668 39.4999941,26.464371 39.4999941,26.0894198 L39.4999941,26.0894198 L39.4999941,17.4796548 C39.4999941,17.1047037 39.8053987,16.8003079 40.1793429,16.8003079 L40.1793429,16.8003079 L48.6621316,16.8003079 L48.5653698,16.4475313 C48.136997,14.884227 46.7067359,13.7926354 45.0869829,13.7926354 L45.0869829,13.7926354 L30.9728563,13.7926354 C30.968425,13.7926354 30.9640036,13.7925927 30.9595925,13.7925078 Z M35.671837,18.166831 L29.3682058,18.166831 L29.3682058,35.4579242 L35.671837,35.4579242 L35.671837,27.4952523 L34.7878772,27.4952523 C34.4129251,27.4952523 34.1085284,27.1898485 34.1085284,26.8159053 C34.1085284,26.4419621 34.4129251,26.1375663 34.7878772,26.1375663 L34.7878772,26.1375663 L35.671837,26.1375663 L35.671837,18.166831 Z M48.6933776,18.1579939 L40.8586918,18.1579939 L40.8586918,25.4110808 L48.6933776,25.4110808 L48.6933776,18.1579939 Z M24.8615912,16.2648483 C25.2355354,16.2648483 25.5399321,16.5692441 25.5399321,16.9441952 L25.5399321,16.9441952 L25.5399321,22.3063996 C25.5399321,22.6803428 25.2355354,22.9857465 24.8615912,22.9857465 L24.8615912,22.9857465 L19.4993721,22.9857465 C19.123412,22.9857465 18.8200233,22.6803428 18.8200233,22.3063996 L18.8200233,22.3063996 L18.8200233,16.9441952 C18.8200233,16.5692441 19.123412,16.2648483 19.4993721,16.2648483 L19.4993721,16.2648483 Z M15.6699155,16.2648483 C16.0438597,16.2648483 16.3492643,16.5692441 16.3492643,16.9441952 L16.3492643,16.9441952 L16.3492643,22.3063996 C16.3492643,22.6803428 16.0438597,22.9857465 15.6699155,22.9857465 L15.6699155,22.9857465 L10.3076964,22.9857465 C9.93274426,22.9857465 9.62834761,22.6803428 9.62834761,22.3063996 L9.62834761,22.3063996 L9.62834761,16.9441952 C9.62834761,16.5692441 9.93274426,16.2648483 10.3076964,16.2648483 L10.3076964,16.2648483 Z M5.80279234,17.6223798 L2.94630196,17.6223798 L2.94630196,21.6268982 L5.80279234,21.6268982 L5.80279234,17.6223798 Z M24.1822424,17.6225342 L20.1767051,17.6225342 L20.1767051,21.6270526 L24.1822424,21.6270526 L24.1822424,17.6225342 Z M14.9905667,17.6225342 L10.9850294,17.6225342 L10.9850294,21.6270526 L14.9905667,21.6270526 L14.9905667,17.6225342 Z" id="Combined-Shape" fill="#3F3F3F" fill-rule="nonzero" transform="translate(25.815744, 26.300013) scale(-1, 1) translate(-25.815744, -26.300013) "></path>
                    <path d="M28.006952,26.8158768 L28.006952,35.4578957 L22.8443043,35.4578957 C22.4693521,35.4578957 22.1649555,35.7622915 22.1649555,36.1362347 C22.1649555,36.1442981 22.1669713,36.1503457 22.1669713,36.1584092 L22.1669713,36.1584092 L20.7195754,36.1584092 C20.7286468,36.041489 20.7367103,35.9255766 20.7367103,35.8066405 C20.7367103,33.40272 18.7813146,31.4473297 16.3773874,31.4473297 C13.9734603,31.4473297 12.0180646,33.40272 12.0180646,35.8066405 C12.0180646,35.9255766 12.027136,36.041489 12.0351995,36.1584092 L12.0351995,36.1584092 L10.14028,36.1584092 C10.14028,36.1503457 10.1422959,36.1442981 10.1422959,36.1362347 C10.1422959,35.7622915 9.83789923,35.4578957 9.463955,35.4578957 L9.463955,35.4578957 L2.93353821,35.4578957 L2.93353821,26.8158768 L28.006952,26.8158768 Z M39.5125728,26.2026287 C39.5670013,26.5221435 39.8441837,26.7680792 40.1798264,26.7680792 L40.1798264,26.7680792 L48.693861,26.7680792 L48.693861,35.4574709 L45.8353548,35.4574709 C45.6579581,33.2168355 43.7801735,31.4469048 41.4941748,31.4469048 C39.2081761,31.4469048 37.3313995,33.2168355 37.1519869,35.4574709 L37.1519869,35.4574709 L37.0280108,35.4574709 L37.0280108,26.2026287 Z M45.0893491,13.7923994 C46.71011,13.7923994 48.1403711,14.883991 48.5687438,16.4483032 L48.5687438,16.4483032 L48.6644978,16.8000719 L40.1817091,16.8000719 C39.8077649,16.8000719 39.5023603,17.1044677 39.5023603,17.4794188 L39.5023603,17.4794188 L39.5023603,26.0891838 C39.5023603,26.1546995 39.5235269,26.2151755 39.5416698,26.2756515 C39.5336063,26.2494452 39.5184873,26.2282786 39.5144555,26.2020723 L39.5144555,26.2020723 L37.0298935,26.2020723 L37.0298935,17.4874823 C37.0298935,17.1135391 36.7265048,16.8081354 36.3515526,16.8081354 L36.3515526,16.8081354 L28.6902317,16.8081354 C28.3162875,16.8081354 28.0118909,17.1135391 28.0118909,17.4874823 L28.0118909,17.4874823 L28.0118909,25.4582177 L2.93847703,25.4582177 L2.93847703,22.9857577 L6.47330829,22.9857577 C6.84725251,22.9857577 7.15265709,22.6803539 7.15265709,22.3064107 L7.15265709,22.3064107 L7.15265709,16.9442063 C7.15265709,16.5702631 6.84725251,16.2648594 6.47330829,16.2648594 L6.47330829,16.2648594 L3.09269123,16.2648594 L3.28117524,15.8667258 C3.8748495,14.6058014 5.15492811,13.7923994 6.54487174,13.7923994 L6.54487174,13.7923994 Z M24.8600752,16.2648594 L19.4978562,16.2648594 C19.122904,16.2648594 18.8185074,16.5702631 18.8185074,16.9442063 L18.8185074,16.9442063 L18.8185074,22.3064107 C18.8185074,22.6803539 19.122904,22.9857577 19.4978562,22.9857577 L19.4978562,22.9857577 L24.8600752,22.9857577 C25.2340195,22.9857577 25.5384161,22.6803539 25.5384161,22.3064107 L25.5384161,22.3064107 L25.5384161,16.9442063 C25.5384161,16.5702631 25.2340195,16.2648594 24.8600752,16.2648594 L24.8600752,16.2648594 Z M15.6666918,16.2648594 L10.3044727,16.2648594 C9.93052848,16.2648594 9.62512389,16.5702631 9.62512389,16.9442063 L9.62512389,16.9442063 L9.62512389,22.3064107 C9.62512389,22.6803539 9.93052848,22.9857577 10.3044727,22.9857577 L10.3044727,22.9857577 L15.6666918,22.9857577 C16.040636,22.9857577 16.3460406,22.6803539 16.3460406,22.3064107 L16.3460406,22.3064107 L16.3460406,16.9442063 C16.3460406,16.5702631 16.040636,16.2648594 15.6666918,16.2648594 L15.6666918,16.2648594 Z" id="Combined-Shape" fill="#FF201B" fill-rule="nonzero" transform="translate(25.813700, 24.975404) scale(-1, 1) translate(-25.813700, -24.975404) "></path>
                </g>
            </g>
        </g>
    </g>
</svg>